<?xml version="1.0" encoding="UTF-8"?>
<!DOCTYPE svg PUBLIC "-//W3C//DTD SVG 1.1//EN" "http://www.w3.org/Graphics/SVG/1.1/DTD/svg11.dtd">
<!-- Creator: CorelDRAW 2017 -->
<svg xmlns="http://www.w3.org/2000/svg" xml:space="preserve" width="37.2418mm" height="15.7676mm" version="1.1" style="shape-rendering:geometricPrecision; text-rendering:geometricPrecision; image-rendering:optimizeQuality; fill-rule:evenodd; clip-rule:evenodd"
viewBox="0 0 1481 627"
 xmlns:xlink="http://www.w3.org/1999/xlink">
 <defs>
  <style type="text/css">
   <![CDATA[
    .fil2 {fill:none;fill-rule:nonzero}
    .fil4 {fill:#FFCC00}
    .fil3 {fill:#D2D3D5;fill-rule:nonzero}
    .fil1 {fill:black;fill-rule:nonzero}
    .fil0 {fill:url(#id3);fill-rule:nonzero}
   ]]>
  </style>
    <clipPath id="id0" style="clip-rule:nonzero">
     <path d="M458 355c0,49 -1,83 -3,103 -2,20 -9,39 -21,55 -12,17 -28,30 -49,39 -20,9 -44,13 -72,13 -26,0 -49,-4 -70,-13 -21,-8 -37,-21 -50,-38 -13,-17 -20,-35 -22,-55 -2,-20 -4,-55 -4,-105l0 -83c0,-49 1,-83 3,-103 2,-20 9,-39 21,-55 12,-17 28,-30 49,-39 20,-9 44,-13 72,-13 26,0 49,4 70,13 21,8 37,21 50,38 13,17 20,35 22,55 2,20 4,55 4,105l0 83zm-126 -159c0,-22 -1,-37 -4,-43 -2,-6 -7,-9 -15,-9 -6,0 -11,3 -15,8 -3,5 -5,20 -5,45l0 226c0,28 1,45 3,52 2,7 7,10 16,10 8,0 14,-4 16,-11 2,-8 3,-26 3,-54l0 -222z"/>
    </clipPath>
     <clipPath id="id1">
      <path d="M458 355c0,49 -1,83 -3,103 -2,20 -9,39 -21,55 -12,17 -28,30 -49,39 -20,9 -44,13 -72,13 -26,0 -49,-4 -70,-13 -21,-8 -37,-21 -50,-38 -13,-17 -20,-35 -22,-55 -2,-20 -4,-55 -4,-105l0 -83c0,-49 1,-83 3,-103 2,-20 9,-39 21,-55 12,-17 28,-30 49,-39 20,-9 44,-13 72,-13 26,0 49,4 70,13 21,8 37,21 50,38 13,17 20,35 22,55 2,20 4,55 4,105l0 83zm-126 -159c0,-22 -1,-37 -4,-43 -2,-6 -7,-9 -15,-9 -6,0 -11,3 -15,8 -3,5 -5,20 -5,45l0 226c0,28 1,45 3,52 2,7 7,10 16,10 8,0 14,-4 16,-11 2,-8 3,-26 3,-54l0 -222z"/>
     </clipPath>
     <clipPath id="id2">
      <path d="M458 355c0,49 -1,83 -3,103 -2,20 -9,39 -21,55 -12,17 -28,30 -49,39 -20,9 -44,13 -72,13 -26,0 -49,-4 -70,-13 -21,-8 -37,-21 -50,-38 -13,-17 -20,-35 -22,-55 -2,-20 -4,-55 -4,-105l0 -83c0,-49 1,-83 3,-103 2,-20 9,-39 21,-55 12,-17 28,-30 49,-39 20,-9 44,-13 72,-13 26,0 49,4 70,13 21,8 37,21 50,38 13,17 20,35 22,55 2,20 4,55 4,105l0 83zm-126 -159c0,-22 -1,-37 -4,-43 -2,-6 -7,-9 -15,-9 -6,0 -11,3 -15,8 -3,5 -5,20 -5,45l0 226c0,28 1,45 3,52 2,7 7,10 16,10 8,0 14,-4 16,-11 2,-8 3,-26 3,-54l0 -222z"/>
     </clipPath>
  <linearGradient id="id3" gradientUnits="userSpaceOnUse" x1="33" y1="300" x2="764" y2="313">
   <stop offset="0" style="stop-opacity:1; stop-color:#DEDADA"/>
   <stop offset="1" style="stop-opacity:1; stop-color:#E6DFDF"/>
  </linearGradient>
 </defs>
 <g id="Layer_x0020_1">
  <metadata id="CorelCorpID_0Corel-Layer"/>
  <g id="_1721805415984">
   <path class="fil0" d="M0 102l160 0c-6,13 -10,28 -12,43 -1,11 -2,24 -3,42l-35 0 0 81 34 0 0 80 -34 0 0 177 -110 0 0 -422zm764 0l0 422 -96 0 0 -285 -38 285 -67 0 -40 -279 0 279 -55 0c6,-13 10,-27 12,-42 3,-24 4,-64 4,-120l0 -97c0,-58 -1,-99 -4,-122 -2,-14 -6,-28 -12,-41l101 0c4,26 8,56 13,90l16 107 25 -197 143 0z"/>
   <path class="fil1" d="M458 355c0,49 -1,83 -3,103 -2,20 -9,39 -21,55 -12,17 -28,30 -49,39 -20,9 -44,13 -72,13 -26,0 -49,-4 -70,-13 -21,-8 -37,-21 -50,-38 -13,-17 -20,-35 -22,-55 -2,-20 -4,-55 -4,-105l0 -83c0,-49 1,-83 3,-103 2,-20 9,-39 21,-55 12,-17 28,-30 49,-39 20,-9 44,-13 72,-13 26,0 49,4 70,13 21,8 37,21 50,38 13,17 20,35 22,55 2,20 4,55 4,105l0 83zm-126 -159c0,-22 -1,-37 -4,-43 -2,-6 -7,-9 -15,-9 -6,0 -11,3 -15,8 -3,5 -5,20 -5,45l0 226c0,28 1,45 3,52 2,7 7,10 16,10 8,0 14,-4 16,-11 2,-8 3,-26 3,-54l0 -222z"/>
   <g style="clip-path:url(#id0)">
    <g>
    </g>
    <g style="clip-path:url(#id1)">
     <image x="98" y="-9" width="431" height="646" xlink:href="FACE OF MOA logo_Images\FACE OF MOA logo_ImgID1.png"/>
    </g>
    <g style="clip-path:url(#id2)">
    </g>
   </g>
   <path class="fil2" d="M458 355c0,49 -1,83 -3,103 -2,20 -9,39 -21,55 -12,17 -28,30 -49,39 -20,9 -44,13 -72,13 -26,0 -49,-4 -70,-13 -21,-8 -37,-21 -50,-38 -13,-17 -20,-35 -22,-55 -2,-20 -4,-55 -4,-105l0 -83c0,-49 1,-83 3,-103 2,-20 9,-39 21,-55 12,-17 28,-30 49,-39 20,-9 44,-13 72,-13 26,0 49,4 70,13 21,8 37,21 50,38 13,17 20,35 22,55 2,20 4,55 4,105l0 83zm-126 -159c0,-22 -1,-37 -4,-43 -2,-6 -7,-9 -15,-9 -6,0 -11,3 -15,8 -3,5 -5,20 -5,45l0 226c0,28 1,45 3,52 2,7 7,10 16,10 8,0 14,-4 16,-11 2,-8 3,-26 3,-54l0 -222z"/>
   <path class="fil3" d="M938 238c-22,0 -33,14 -33,37 0,42 50,45 50,78 0,13 -6,21 -17,21 -12,0 -17,-8 -17,-21l0 -9 -16 0 0 9c0,23 11,37 33,37 23,0 34,-15 34,-37 0,-42 -50,-45 -50,-79 0,-13 5,-21 17,-21 12,0 17,8 17,21l0 5 16 0 0 -4c0,-23 -11,-37 -33,-37z"/>
   <polygon id="1" class="fil3" points="1039,305 1002,305 1002,254 1047,254 1047,239 986,239 986,388 1047,388 1047,373 1002,373 1002,320 1039,320 "/>
   <path id="2" class="fil3" d="M1079 358l38 0 6 30 17 0 -29 -149 -24 0 -29 149 15 0 6 -30zm2 -14l16 -86 17 86 -33 0z"/>
   <path id="3" class="fil3" d="M1184 238c-22,0 -33,14 -33,37 0,42 50,45 50,78 0,13 -6,21 -17,21 -12,0 -17,-8 -17,-21l0 -9 -16 0 0 9c0,23 11,37 33,37 23,0 34,-15 34,-37 0,-42 -50,-45 -50,-79 0,-13 5,-21 17,-21 12,0 17,8 17,21l0 5 16 0 0 -4c0,-23 -11,-37 -33,-37z"/>
   <path id="4" class="fil3" d="M1230 275l0 77c0,23 11,38 34,38 23,0 34,-15 34,-38l0 -77c0,-23 -11,-38 -34,-38 -23,0 -34,15 -34,38zm16 78l0 -79c0,-13 6,-22 18,-22 12,0 18,8 18,22l0 79c0,14 -6,22 -18,22 -12,0 -18,-8 -18,-22z"/>
   <polygon id="5" class="fil3" points="1329,388 1329,268 1367,388 1384,388 1384,239 1370,239 1370,347 1335,239 1314,239 1314,388 "/>
   <path id="6" class="fil3" d="M1465 266l0 122 16 0 0 -149 -12 0c-4,10 -9,19 -26,20l0 14c8,0 15,-3 21,-6z"/>
   <rect class="fil4" x="839" width="31" height="627" rx="15" ry="5"/>
  </g>
 </g>
</svg>
